<?xml version="1.0" encoding="UTF-8"?>
<!DOCTYPE svg PUBLIC "-//W3C//DTD SVG 1.1//EN" "http://www.w3.org/Graphics/SVG/1.1/DTD/svg11.dtd">
<!-- Creator: CorelDRAW X8 -->
<svg xmlns="http://www.w3.org/2000/svg" xml:space="preserve" width="8in" height="8in" version="1.1" style="shape-rendering:geometricPrecision; text-rendering:geometricPrecision; image-rendering:optimizeQuality; fill-rule:evenodd; clip-rule:evenodd"
viewBox="0 0 8000 8000"
 xmlns:xlink="http://www.w3.org/1999/xlink"
 xmlns:dc="http://purl.org/dc/elements/1.1/"
 xmlns:cc="http://creativecommons.org/ns#"
 xmlns:rdf="http://www.w3.org/1999/02/22-rdf-syntax-ns#"
 xmlns:svg="http://www.w3.org/2000/svg">
 <defs>
  <style type="text/css">
   <![CDATA[
    .str0 {stroke:#FEFEFE;stroke-width:15.2126}
    .fil5 {fill:none;fill-rule:nonzero}
    .fil1 {fill:#FEFEFE}
    .fil3 {fill:#9DDBF0}
    .fil2 {fill:#6FCCE1}
    .fil0 {fill:#364A90}
    .fil4 {fill:#FEFEFE;fill-rule:nonzero}
   ]]>
  </style>
 </defs>
 <g id="Слой_x0020_1">
  <metadata id="CorelCorpID_0Corel-Layer"/>
  <g id="_1832967370576">
   <path class="fil0" d="M7761 4011c-6,2072 -1688,3750 -3761,3750 -2077,0 -3761,-1684 -3761,-3761 0,-2077 1684,-3761 3761,-3761 2073,0 3755,1678 3761,3750l0 22z"/>
   <path class="fil1" d="M4017 1216c1539,0 2786,1248 2786,2786 0,1539 -1247,2786 -2786,2786 -1539,0 -2786,-1247 -2786,-2786 0,-1538 1247,-2786 2786,-2786z"/>
   <path class="fil2" d="M4000 1396c1438,0 2604,1166 2604,2604 0,1438 -1166,2604 -2604,2604 -1438,0 -2604,-1166 -2604,-2604 0,-1438 1166,-2604 2604,-2604z"/>
   <path class="fil1" d="M3572 2138c22,0 43,4 63,12 29,-113 131,-196 252,-196 143,0 258,114 261,255 15,-5 30,-8 47,-8 72,0 130,58 130,130 0,22 -5,42 -15,61l-1036 0c-9,-15 -14,-32 -14,-50 0,-53 43,-95 95,-95 18,0 35,5 50,13 22,-71 89,-122 167,-122z"/>
   <path class="fil1" d="M3134 2868c15,0 30,3 44,8 21,-79 93,-138 179,-138 101,0 183,80 185,181 10,-4 21,-7 33,-7 51,0 92,42 92,93 0,15 -3,30 -10,43l-636 0c-8,-17 -12,-35 -12,-55 0,-69 56,-125 125,-125z"/>
   <polygon class="fil1" points="6458,3862 6396,3833 6346,3862 6262,3862 6262,3559 6200,3530 6159,3559 6064,3559 6064,4062 5914,4062 5914,3736 5716,3736 5716,3862 5546,3862 5546,4062 5384,4062 5384,3736 5322,3707 5260,3736 5205,3736 5205,3559 5007,3559 5007,3862 4824,3862 4824,4062 4670,4062 4670,3736 4609,3707 4472,3862 4314,3862 4314,3559 4116,3559 4116,3862 3942,3862 3942,4062 3809,4062 3809,3559 3747,3530 3611,3736 3456,3736 3456,3862 3276,3862 3276,4062 3113,4062 3113,3862 3052,3833 2922,3862 2922,3559 2860,3530 2724,4062 2562,4062 2562,3736 2500,3707 2364,3736 2210,3736 2210,3862 2053,3862 2053,3559 1991,3530 1855,3736 1672,3736 1672,4062 1492,4062 1492,4536 6544,4536 6544,4062 6458,4062 "/>
   <path class="fil0" d="M6603 4033c-2,172 -21,341 -55,503l-5096 0c-34,-162 -53,-331 -55,-503l214 0 0 -326 182 0 0 -177 198 0 0 303 157 0 0 -126 352 0 0 326 162 0 0 -503 198 0 0 303 192 0 0 200 162 0 0 -200 180 0 0 -126 155 0 0 -177 198 0 0 503 133 0 0 -200 174 0 0 -303 198 0 0 303 158 0 0 -126 199 0 0 326 154 0 0 -200 182 0 0 -303 199 0 0 177 178 0 0 326 163 0 0 -200 169 0 0 -126 199 0 0 326 149 0 0 -503 198 0 0 303 196 0 0 200 207 0z"/>
   <path class="fil3" d="M5029 1969l-650 0 2 -105 646 0 2 105zm-699 3663l370 -360 369 360 -369 360 -370 -360 0 0zm770 -124l-368 -358 -65 0 -359 350 28 -1401 736 0 28 1409 0 0zm-491 549l-318 309 12 -607 306 298 0 0zm-235 -3466l13 -493 644 0 10 493 -667 0 0 0zm682 750l7 338 5 253 -728 0 15 -591 701 0 0 0zm-698 -129l13 -492 673 0 10 492 -696 0 0 0zm908 3050l-92 -4589c-10,-5 -21,-10 -31,-15l-120 0 1 85 -641 0 2 -85 -151 0 -98 4885c81,-2 162,-7 241,-16l-47 -45 370 -360 274 267c38,-14 75,-29 112,-44l-295 -288 314 -305 11 580c51,-22 101,-45 150,-70l0 0z"/>
   <path class="fil3" d="M6013 2962l-1 -38 -333 0 -1 38 335 0zm-357 1999l187 183 188 -183 -188 -183 -187 183 0 0zm395 -90l-15 -734 -381 0 -15 730 182 -177 43 0 186 181 0 0zm-395 552l187 182 188 -182 -188 -183 -187 183 0 0zm125 -231l-144 -140 -6 286 150 -146 0 0zm279 150l-6 -295 -148 145 154 150 0 0zm-389 -2021l349 0 -5 -230 -1 -40 -339 0 1 36 -5 234 0 0zm358 447l-367 0 -3 147 -2 114 377 0 -2 -107 -3 -154 0 0zm-365 -89l363 0 -4 -170 -1 -100 -353 0 -1 95 -4 175 0 0zm401 1910l-2 -89 -198 194 -43 0 -194 -190 -5 249 -101 0 59 -2960 101 0 -1 46 329 0 -1 -46 101 0 53 2660c-31,47 -64,92 -98,136l0 0z"/>
   <path class="fil1" d="M6076 3585c21,75 43,145 68,209 114,298 263,485 400,602l0 -20c-123,-104 -260,-276 -368,-559 -40,-104 -75,-222 -105,-357l5 125z"/>
   <path class="fil0" d="M6082 3566c20,76 42,145 66,210 110,301 260,489 396,606l0 -10 -3 -12c-122,-104 -257,-276 -362,-561 -38,-104 -72,-223 -99,-358l2 125z"/>
   <path class="fil1" d="M6540 4469l0 -26 -10 -4c-449,-215 -781,-746 -886,-1223l-12 -16 -1 69c119,464 472,986 909,1200z"/>
   <path class="fil0" d="M6544 4461l0 -26 -10 -3c-450,-216 -782,-746 -887,-1224l-12 -16 -1 69c119,465 472,986 910,1200z"/>
   <path class="fil1" d="M4987 2029l-650 0 2 -105 646 0 2 105zm-699 3663l370 -359 370 359 -370 360 -370 -360 0 0zm770 -124l-367 -357 -65 0 -359 349 28 -1401 735 0 28 1409 0 0zm-491 549l-318 310 12 -607 306 297 0 0zm-234 -3466l12 -492 645 0 9 492 -666 0 0 0zm682 751l7 337 5 254 -729 0 15 -591 702 0 0 0zm-698 -130l12 -492 673 0 10 492 -695 0 0 0zm907 3029l-92 -4583 -151 0 2 85 -641 0 2 -85 -152 0 -97 4885c15,0 31,-1 47,-1 64,-4 127,-9 190,-17l-44 -43 370 -360 263 256c37,-14 75,-29 111,-45l-283 -276 314 -305 11 563c51,-23 101,-48 150,-74l0 0z"/>
   <path class="fil1" d="M5971 3023l-1 -39 -332 0 -1 39 334 0zm-357 1998l188 183 187 -183 -187 -182 -188 182 0 0zm395 -89l-15 -734 -381 0 -14 729 181 -177 43 0 186 182 0 0zm-395 551l188 183 187 -183 -187 -183 -188 183 0 0zm125 -231l-144 -140 -6 286 150 -146 0 0zm280 150l-6 -294 -149 144 155 150 0 0zm-389 -2021l348 0 -4 -229 -1 -41 -340 0 1 36 -4 234 0 0zm357 447l-366 0 -3 147 -3 114 377 0 -2 -107 -3 -154 0 0zm-365 -88l363 0 -3 -171 -2 -99 -352 0 -2 95 -4 175 0 0zm401 1902l-1 -82 -199 194 -43 0 -194 -189 -5 248 -101 0 60 -2959 100 0 -1 46 329 0 0 -46 100 0 53 2659c-31,44 -64,87 -98,129l0 0z"/>
   <path class="fil0" d="M5925 3023l-1 -39 -332 0 -1 39 334 0zm-357 1998l188 183 187 -183 -187 -182 -188 182 0 0zm395 -89l-14 -734 -382 0 -14 729 181 -177 43 0 186 182 0 0zm-395 551l188 183 187 -183 -187 -183 -188 183 0 0zm125 -231l-144 -140 -6 286 150 -146 0 0zm280 150l-6 -294 -149 144 155 150 0 0zm-389 -2021l348 0 -4 -229 -1 -41 -339 0 0 36 -4 234 0 0zm357 447l-366 0 -3 147 -3 114 377 0 -2 -107 -3 -154 0 0zm-364 -88l362 0 -3 -171 -2 -99 -352 0 -2 95 -3 175 0 0zm500 1831c-32,41 -65,82 -99,121l-2 -132 -199 194 -43 0 -194 -189 -5 248 -101 0 60 -2959 100 0 -1 46 330 0 -1 -46 100 0 55 2717 0 0z"/>
   <path class="fil1" d="M5515 2899c-259,1420 -485,1813 -684,1542 -203,-276 -386,-1161 -552,-2341l-12 251c158,1072 330,1867 521,2127 234,318 488,-78 765,-1579l-38 0z"/>
   <path class="fil0" d="M4295 2128l-4 -28 -1 25 5 3zm843 2170c-109,225 -210,251 -306,120 -180,-248 -344,-989 -494,-1993l-7 266c141,887 293,1534 460,1763 111,153 227,139 348,-86l-1 -70 0 0zm366 -1407c-114,628 -221,1053 -322,1307l1 79c115,-259 234,-709 358,-1386l-37 0 0 0z"/>
   <path class="fil0" d="M4941 2029l-650 0 2 -105 646 0 2 105zm-698 3663l369 -359 370 359 -370 360 -369 -360 0 0zm769 -124l-367 -357 -65 0 -359 349 28 -1401 735 0 28 1409 0 0zm-491 549l-318 310 13 -607 305 297 0 0zm-234 -3466l12 -492 645 0 10 492 -667 0 0 0zm682 751l7 337 5 254 -729 0 15 -591 702 0 0 0zm-698 -130l12 -492 673 0 10 492 -695 0 0 0zm907 3050l-92 -4604 -151 0 2 85 -641 0 2 -85 -152 0 -97 4885c81,-1 161,-7 240,-15l-46 -46 369 -360 274 267c38,-14 76,-28 113,-44l-296 -288 314 -305 12 580c50,-21 100,-45 149,-70l0 0z"/>
   <path class="fil0" d="M1724 5266c1472,-462 3093,-761 4820,-739l5 7 -5 24c-3,12 -6,24 -9,37 -1324,168 -2552,771 -3762,1702 -440,-236 -805,-595 -1049,-1031z"/>
   <path class="fil1" d="M1786 5371c1455,-485 3055,-813 4758,-830l3 0 -3 17c-4,17 -8,34 -12,51 -1295,195 -2497,805 -3681,1728 -439,-216 -808,-553 -1065,-966z"/>
   <path class="fil0" d="M1861 5484c1431,-505 3006,-863 4682,-924 -7,34 -15,68 -24,101 -1223,244 -2366,857 -3493,1754 -473,-191 -878,-517 -1165,-931z"/>
   <path class="fil1" d="M2692 6251c1241,-935 2495,-1533 3847,-1670 -5,21 -10,41 -15,62 -1253,222 -2421,833 -3574,1740 -89,-39 -175,-83 -258,-132z"/>
   <path class="fil0" d="M2888 6355c1152,-947 2337,-1567 3644,-1746 -5,20 -10,41 -16,62 -1198,259 -2293,885 -3354,1795 -94,-32 -185,-69 -274,-111z"/>
   <path class="fil1" d="M3119 6451c1093,-907 2208,-1537 3406,-1813 -6,22 -12,44 -18,66 -1094,336 -2118,964 -3121,1827 -91,-22 -180,-49 -267,-80z"/>
   <polygon class="fil0" points="5138,4315 4988,4361 5008,5372 5159,5369 "/>
   <polygon class="fil0" points="6054,4440 5953,4438 5966,5050 6066,5042 "/>
   <path class="fil1" d="M3521 2926c10,0 20,2 30,6 14,-54 62,-94 120,-94 69,0 124,55 125,123 7,-3 15,-5 23,-5 34,0 62,28 62,63 0,10 -3,20 -7,29l-429 0c-5,-11 -9,-24 -9,-37 0,-47 38,-85 85,-85z"/>
   <path class="fil1" d="M4995 1794c-49,404 -286,1468 -1008,2642 -352,572 -819,1169 -1434,1728 29,20 59,40 90,58 584,-542 1030,-1118 1370,-1670 793,-1290 1002,-2452 1019,-2751l-2 -7 -35 0z"/>
   <path class="fil0" d="M4983 1794c-58,424 -307,1466 -1018,2613 -355,573 -827,1172 -1448,1733 29,20 59,40 89,59 589,-544 1041,-1122 1384,-1676 783,-1261 1006,-2400 1033,-2729l-40 0z"/>
   <path class="fil1" d="M4152 1794c-446,1231 -1548,2417 -2542,3240 12,27 24,53 36,80 1534,-1266 2199,-2468 2453,-3054 35,-80 79,-180 106,-266l-53 0z"/>
   <path class="fil0" d="M4139 1794c-466,1214 -1562,2380 -2549,3192 11,27 22,54 34,80 1543,-1265 2218,-2466 2477,-3052 30,-66 65,-146 92,-220l-54 0z"/>
   <path class="fil1" d="M5973 2914c-92,1553 -217,1984 -361,1691 -143,-290 -304,-1206 -471,-2433l6 265c155,1113 305,1935 440,2207 169,344 312,-91 410,-1730l-24 0z"/>
   <path class="fil0" d="M5957 2914c-89,1521 -211,1941 -350,1651 -142,-295 -302,-1243 -468,-2507l5 268c155,1149 305,2001 439,2279 163,340 302,-84 397,-1691l-23 0z"/>
   <path class="fil1" d="M2452 2330c-21,0 -42,4 -61,11 -26,-103 -116,-181 -225,-189 -129,129 -245,270 -345,423l919 0c9,-14 14,-31 14,-48 0,-51 -42,-92 -92,-92 -18,0 -34,4 -48,13 -22,-69 -86,-118 -162,-118z"/>
   <path class="fil1" d="M2607 2430c13,0 25,2 36,6 16,-64 75,-112 145,-112 81,0 147,65 149,146 8,-3 17,-5 27,-5 41,0 74,34 74,75 0,13 -3,24 -8,35l-514 0c-6,-14 -10,-29 -10,-45 0,-55 45,-100 101,-100z"/>
   <polygon class="fil1" points="5189,4554 5205,5367 5159,5345 5142,4484 "/>
   <polygon class="fil1" points="6102,4431 6112,4906 6064,4920 6055,4475 "/>
   <path class="fil0" d="M5919 2081c-491,-491 -1170,-794 -1919,-794 -749,0 -1428,303 -1919,794 -491,491 -794,1170 -794,1919 0,749 303,1428 794,1919 491,491 1170,794 1919,794 749,0 1428,-303 1919,-794 491,-491 794,-1170 794,-1919 0,-749 -303,-1428 -794,-1919zm-1919 -935c788,0 1502,319 2018,836 517,516 836,1230 836,2018 0,788 -319,1502 -836,2018 -516,517 -1230,836 -2018,836 -788,0 -1502,-319 -2018,-836 -517,-516 -836,-1230 -836,-2018 0,-788 319,-1502 836,-2018 516,-517 1230,-836 2018,-836l0 0z"/>
   <path class="fil4" d="M3104 6806l-43 36 -169 490 29 12 184 -538 -1 0zm-565 -272l60 649 26 -21 -58 -616 -28 -12zm-91 -57l169 72c1,38 2,69 4,93 1,24 3,53 6,86l23 253c6,61 13,108 21,141 26,-19 69,-52 129,-102l183 -147c52,-42 94,-80 127,-113l169 72 -2 4 -111 -31c-12,23 -22,46 -32,69 -11,24 -30,75 -57,152 -27,76 -52,149 -73,216 -21,67 -31,108 -30,122l66 45 -1 4 -271 -116 2 -4 99 26c11,-19 24,-45 38,-79 8,-19 18,-43 29,-74 12,-31 25,-66 39,-107 14,-40 26,-77 36,-112 10,-35 16,-59 18,-72 -21,14 -44,31 -68,51l-277 222c-44,37 -75,64 -91,81l-6 -3c0,-14 -2,-38 -4,-70 -2,-32 -4,-58 -5,-76l-27 -294c-5,-49 -9,-90 -13,-120 -6,10 -19,33 -39,68 -19,36 -40,75 -62,118 -22,42 -40,78 -55,108 -15,30 -26,54 -34,72 -5,12 -12,30 -22,54l69 47 -1 4 -194 -83 1 -4 82 18c8,-10 29,-44 61,-103 33,-59 66,-121 99,-184 32,-63 55,-110 67,-139 5,-10 11,-26 19,-48 -1,-19 -8,-43 -22,-70l-61 -43 2 -4z"/>
   <path class="fil4" d="M4051 7505l0 6c34,-2 63,-8 87,-17 25,-9 45,-22 61,-38 17,-16 29,-36 37,-61 7,-24 11,-52 11,-84l-1 -408 -30 0 1 407c0,57 -13,102 -39,136 -26,33 -69,53 -127,59zm-56 6l0 -6c-41,-2 -76,-10 -106,-24 -31,-13 -54,-34 -71,-61 -17,-27 -26,-61 -26,-100l-2 -416 -30 0 2 431c0,53 19,95 56,125 37,31 96,48 177,51zm-246 -176l0 -239c-1,-54 -4,-116 -11,-189l-90 -14 0 -4 313 -1 0 4 -113 14c-3,21 -5,45 -7,73 -2,28 -3,58 -4,89 -1,32 -2,58 -2,77l1 176c0,42 8,76 25,102 18,25 40,43 68,54 28,10 59,16 93,15 57,0 102,-14 135,-44 33,-29 49,-76 49,-142l-1 -183c0,-33 -1,-72 -4,-116 -2,-45 -5,-78 -9,-102l-113 -13 0 -5 312 -1 0 5 -88 14c-4,19 -7,50 -9,93 -2,43 -3,80 -3,109l1 209c0,32 -4,59 -11,82 -8,23 -20,42 -36,59 -11,11 -23,20 -35,28 -13,8 -28,15 -47,20 -19,6 -40,10 -62,13 -22,3 -50,4 -83,4 -54,0 -100,-6 -140,-18 -40,-11 -71,-31 -94,-59 -23,-28 -35,-65 -35,-110z"/>
   <path class="fil4" d="M4872 6782l701 333 -16 -37 -651 -310 -34 14zm-123 39l-1 -4 200 -84c21,13 47,27 78,44 32,17 60,31 84,42l259 124c35,15 61,28 80,36 19,9 43,19 72,30 -6,-19 -12,-36 -18,-52 -6,-16 -12,-31 -18,-45l-71 -172c-26,-61 -50,-111 -73,-148l-102 25 -2 -4 236 -98 2 4 -90 55c10,39 27,88 51,145l181 435 -4 2c-62,-35 -122,-66 -180,-94l-355 -170c-52,-23 -95,-41 -130,-53 11,37 23,72 36,103l105 251c14,33 33,72 58,117l107 -28 1 4 -241 101 -2 -4 92 -55c-5,-20 -14,-48 -27,-84 -13,-36 -25,-67 -37,-95l-81 -194c-9,-23 -19,-46 -29,-68 -11,-22 -21,-44 -33,-65l-69 -17 -79 16z"/>
   <path class="fil4" d="M1572 1594l344 363 18 -17 -344 -364 -18 18zm-86 68l-3 -3 198 -187 3 2 -56 71c13,19 33,44 59,74 25,30 48,56 68,77l107 113c26,27 54,54 84,81 39,-19 74,-44 106,-74 15,-14 29,-28 40,-42 11,-14 19,-25 23,-31l-41 -97 4 -4 78 107 -310 294 -3 -3 54 -68c-6,-10 -18,-27 -37,-50 -19,-23 -39,-46 -59,-70 -21,-23 -36,-40 -45,-49l-62 -67c-14,-14 -30,-30 -49,-48 -18,-19 -34,-34 -49,-47 -14,-14 -26,-24 -36,-32l-74 53z"/>
   <path class="fil4" d="M2282 1143c1,14 3,34 6,61 4,26 7,51 10,74 4,23 8,47 12,72 4,26 7,43 8,51 13,-5 28,-13 45,-22 17,-9 32,-18 47,-26 36,-22 65,-41 86,-57 -21,-19 -54,-44 -99,-76 -44,-32 -83,-58 -115,-77zm-10 -29l389 290 21 -12 -416 -310 6 32zm-9 -78l324 241c43,31 87,61 135,88l58 -19 2 3 -219 129 -2 -3 78 -60c-16,-19 -34,-38 -57,-57 -23,-19 -44,-35 -65,-47l-195 116c5,25 8,47 11,63 3,16 6,33 10,51 4,17 8,31 13,41l87 -37 2 3 -173 103 -2 -3 50 -45c0,-32 -3,-66 -8,-102l-73 -450 24 -15z"/>
   <path class="fil4" d="M3361 659l-9 46 142 412 25 -7 -156 -451 -2 0zm-514 112l376 399 6 -27 -357 -378 -25 6zm-90 10l150 -40c20,24 37,44 50,60 14,15 30,33 49,53l146 156c35,37 64,64 86,82 8,-26 19,-70 33,-134l45 -191c13,-56 21,-103 25,-141l150 -40 1 4 -90 37c4,21 9,41 14,62 6,21 20,64 41,129 22,65 43,126 64,181 21,56 35,88 43,97l67 -5 1 4 -239 63 -1 -4 80 -34c-3,-18 -8,-42 -16,-72 -5,-16 -11,-38 -19,-64 -8,-26 -18,-56 -30,-90 -11,-34 -23,-65 -34,-94 -11,-28 -20,-47 -26,-56 -6,20 -12,43 -18,69l-68 290c-10,47 -17,80 -19,100l-5 2c-8,-10 -21,-25 -39,-45 -18,-20 -32,-36 -43,-48l-169 -180c-29,-31 -53,-55 -71,-73 1,10 4,32 10,65 5,34 12,71 19,110 7,40 14,73 19,101 6,27 11,49 15,64 3,11 8,27 14,48l70 -5 1 3 -171 46 -1 -4 62 -30c1,-11 -3,-44 -12,-100 -9,-56 -19,-114 -30,-172 -11,-59 -20,-102 -27,-127 -2,-9 -6,-23 -12,-42 -11,-12 -28,-24 -51,-35l-63 3 -1 -3z"/>
   <path class="fil4" d="M4039 823l0 3c21,4 41,12 59,23 19,11 34,26 45,45 11,19 16,41 16,68 0,21 -4,41 -14,60 -9,18 -24,33 -45,45 -20,13 -46,18 -78,18l0 3c4,2 11,2 22,2 30,0 56,-6 77,-18 22,-12 38,-28 49,-48 11,-19 16,-40 16,-62 0,-27 -6,-50 -17,-71 -11,-20 -28,-36 -50,-48 -22,-12 -49,-19 -80,-20zm-40 -245l0 3c26,1 48,6 67,16 18,10 32,24 41,41 9,17 14,37 14,59 0,21 -4,40 -12,56 -9,16 -19,28 -31,38 -13,9 -26,15 -39,18l0 4c33,-4 59,-18 78,-39 18,-22 28,-49 28,-79 0,-19 -3,-35 -9,-50 -6,-15 -15,-27 -27,-37 -11,-11 -24,-18 -39,-23 -14,-6 -31,-8 -50,-8 -4,0 -12,0 -21,1zm-10 11c-18,0 -32,2 -42,5 -6,38 -9,84 -9,136 0,39 1,63 2,74 11,5 25,7 43,7 24,0 46,-5 64,-13 19,-9 34,-22 45,-39 11,-17 16,-39 16,-64 0,-19 -4,-37 -12,-53 -8,-16 -21,-29 -39,-38 -18,-10 -40,-15 -68,-15zm1 241c-24,0 -40,2 -50,5 -2,18 -3,46 -3,86 0,47 2,92 5,136 14,7 26,13 37,15 11,3 25,5 41,5 25,0 48,-5 67,-13 19,-9 33,-22 44,-40 11,-17 16,-39 16,-64 0,-25 -6,-47 -18,-67 -12,-19 -30,-35 -54,-46 -23,-11 -52,-17 -85,-17zm-114 -247l-1 500 25 0 1 -500 -25 0zm-115 511l90 -14c5,-19 8,-53 10,-101 3,-48 4,-85 4,-112l0 -116c0,-33 -1,-64 -2,-94 -2,-30 -4,-54 -7,-71l-94 -13 0 -4 268 1c38,0 69,6 91,18 23,13 39,28 48,47 9,18 14,38 14,58 0,37 -13,65 -37,87 -24,21 -54,33 -89,36l0 2c36,1 67,9 92,22 26,13 45,30 58,51 13,21 19,43 19,67 0,20 -5,41 -15,62 -10,21 -28,39 -54,55 -27,15 -62,22 -106,22l-290 0 0 -3z"/>
   <path class="fil4" d="M4715 659l-108 489 24 5 107 -489 -23 -5zm-150 -47l306 68c19,4 36,7 51,9 16,3 36,5 61,8l-17 116 -4 -1 -8 -88c-20,-9 -42,-16 -65,-21 -20,-4 -39,-7 -55,-9 -17,-1 -36,-2 -56,-1 -7,22 -13,42 -18,62 -6,21 -10,39 -15,56 -4,17 -7,29 -8,36l-26 116c-7,31 -13,66 -19,104 -7,39 -11,70 -13,94l84 32 -1 3 -265 -58 0 -4 89 6c19,-50 36,-112 52,-186l28 -127c6,-27 11,-53 16,-79 4,-25 8,-50 10,-74 -13,-7 -28,-13 -46,-19 -17,-6 -34,-12 -50,-16 -26,-5 -52,-9 -77,-10l-44 78 -5 -1 33 -114c7,2 17,6 30,11 13,4 24,8 32,9z"/>
   <path class="fil4" d="M5539 937l-1 3c20,12 38,28 55,46 17,19 31,42 41,68 9,27 13,58 9,93 -3,35 -15,74 -36,116 -14,27 -30,52 -49,74 -19,21 -41,39 -66,53 -24,14 -52,22 -82,24 -31,2 -63,-3 -97,-16l-2 4c28,12 57,19 87,21 30,1 60,-3 89,-13 29,-10 56,-27 81,-50 25,-23 47,-52 64,-86 19,-39 29,-75 32,-110 3,-35 -1,-67 -11,-96 -11,-30 -26,-55 -45,-77 -20,-22 -43,-40 -69,-54zm-23 5c-33,-16 -68,-23 -105,-19 -37,3 -72,17 -105,42 -33,25 -61,60 -83,104 -24,49 -35,94 -33,136 2,43 13,79 34,109 20,30 46,53 76,68 25,12 51,19 78,20 27,2 53,-2 80,-12 26,-10 51,-25 74,-47 23,-22 42,-49 58,-82 23,-45 35,-83 38,-115 3,-32 -1,-63 -11,-92 -9,-26 -22,-48 -40,-67 -17,-18 -38,-33 -61,-45zm-10 -17l2 -3c-31,-15 -63,-23 -98,-25 -35,-1 -69,4 -101,15 -33,11 -62,27 -88,49 -26,22 -46,48 -62,79 -18,37 -26,79 -23,124 3,46 17,88 42,128 25,40 59,72 101,94l2 -3c-40,-25 -71,-56 -92,-94 -21,-39 -31,-78 -32,-120 0,-41 9,-80 26,-115 15,-30 33,-55 56,-78 23,-22 49,-39 78,-51 29,-12 59,-18 92,-18 32,-1 64,5 97,18zm19 -6c46,22 82,50 108,82 26,31 44,65 53,100 10,36 12,70 8,103 -3,33 -11,62 -24,88 -15,29 -34,55 -60,77 -25,23 -54,41 -88,53 -34,13 -70,18 -110,16 -39,-2 -79,-13 -119,-33 -58,-29 -101,-65 -129,-110 -28,-45 -42,-91 -43,-138 -1,-46 7,-87 25,-123 15,-31 36,-58 63,-81 26,-24 57,-41 91,-53 35,-12 72,-16 111,-13 38,2 77,13 114,32z"/>
   <path class="fil4" d="M6099 1295l6 651 22 -25 -5 -606 -23 -20zm-74 -79l2 -3 137 121c-2,20 -4,45 -5,75 -1,30 -1,56 -1,79l2 241c1,32 1,56 2,74 0,17 2,39 4,65 12,-11 23,-22 33,-33 10,-10 19,-20 27,-30l103 -116c38,-42 66,-79 86,-110l-57 -68 3 -3 160 143 -2 2 -75 -47c-26,22 -56,53 -91,92l-261 296 -3 -3c3,-59 5,-116 5,-170l-2 -330c-2,-48 -4,-87 -8,-118 -24,22 -46,44 -64,65l-152 171c-20,23 -42,52 -67,87l60 70 -2 3 -164 -145 2 -3 75 49c13,-11 31,-28 53,-51 23,-23 42,-44 58,-63l117 -132c14,-16 28,-31 41,-47 13,-16 25,-32 37,-49l-12 -58 -41 -54z"/>
   <path class="fil5 str0" d="M7646 4000c0,2014 -1632,3646 -3646,3646 -2014,0 -3646,-1632 -3646,-3646 0,-2014 1632,-3646 3646,-3646 2014,0 3646,1632 3646,3646z"/>
   <path class="fil4" d="M6875 2673c30,61 58,124 84,187 -171,-189 -345,-15 -345,-20 4,-3 134,249 379,108 37,98 68,198 94,300 -144,-213 -339,-63 -339,-67 4,-3 99,264 361,158 23,103 40,207 52,312 -114,-232 -328,-111 -326,-114 4,-3 61,275 335,207 9,106 12,211 10,317 -82,-246 -310,-156 -308,-159 4,-2 24,282 305,253 -6,106 -17,211 -33,316 -48,-256 -286,-198 -284,-201 5,-1 -14,282 267,294 -19,104 -44,207 -75,309 -13,-262 -256,-237 -254,-240 5,0 -52,279 225,330 -35,106 -77,209 -124,310 -6,12 -2,26 8,32 11,5 24,-1 30,-14 20,-42 39,-85 57,-129 240,171 388,-153 383,-156 -1,-5 -188,-142 -348,67 38,-101 70,-204 97,-308 261,134 363,-207 358,-210 -1,-4 -205,-112 -336,117 24,-105 42,-211 54,-318 277,95 332,-258 326,-260 -2,-3 -218,-80 -316,164 9,-106 12,-214 10,-321 287,54 294,-303 288,-304 -2,-3 -227,-47 -291,208 -6,-107 -16,-213 -33,-319 292,12 250,-342 245,-342 -3,-3 -231,-13 -261,248 -20,-105 -45,-209 -75,-311 290,-30 201,-374 195,-373 -3,-2 -230,20 -224,283 -43,-128 -94,-252 -153,-372 54,-312 -245,-372 -241,-366 4,6 -60,265 203,384z"/>
   <path class="fil4" d="M1125 2673c-30,61 -58,124 -84,187 172,-189 345,-15 345,-20 -4,-3 -134,249 -379,108 -37,98 -68,198 -94,300 144,-213 340,-63 339,-67 -4,-3 -98,264 -361,158 -22,103 -40,207 -52,312 114,-232 328,-111 327,-114 -4,-3 -62,275 -336,207 -9,106 -12,211 -10,317 82,-246 310,-156 308,-159 -4,-2 -24,282 -304,253 5,106 16,211 33,316 47,-256 285,-198 283,-201 -4,-1 14,282 -267,294 20,104 45,207 75,309 13,-262 256,-237 254,-240 -5,0 52,279 -225,330 36,106 77,209 124,310 6,12 2,26 -8,32 -11,5 -24,-1 -30,-14 -20,-42 -39,-85 -57,-129 -240,171 -387,-153 -383,-156 1,-5 188,-142 348,67 -37,-101 -70,-204 -97,-308 -261,134 -363,-207 -358,-210 2,-4 206,-112 336,117 -24,-105 -41,-211 -54,-318 -277,95 -331,-258 -326,-260 2,-3 218,-80 317,164 -10,-106 -13,-214 -11,-321 -287,54 -294,-303 -288,-304 2,-3 227,-47 291,208 6,-107 17,-213 33,-319 -292,12 -250,-342 -244,-342 2,-3 231,-13 260,248 20,-105 45,-209 76,-311 -291,-30 -202,-374 -196,-373 3,-2 230,20 224,283 43,-128 94,-252 153,-372 -54,-312 245,-372 241,-366 -4,6 61,265 -203,384z"/>
  </g>
 </g>
</svg>
